<svg width="262" height="291" viewBox="0 0 262 291" fill="none" xmlns="http://www.w3.org/2000/svg">
<path d="M189.416 152.743C190.081 148.622 189.792 144.253 188.253 140.404C186.811 136.797 184.46 133.703 181.506 131.511C180.545 130.798 179.519 130.2 178.45 129.727C178.416 130.083 178.326 130.419 178.196 130.753C178.149 130.875 178.097 130.993 178.046 131.113C182.65 133.19 186.35 137.832 187.76 143.127C190.066 151.788 186.459 161.307 180.637 167.172C174.614 173.239 166.322 175.979 158.329 176.414C157.456 176.462 156.579 176.478 155.699 176.465C155.296 172.577 154.383 168.749 152.839 165.223C151.199 161.476 148.864 158.152 146.071 155.374C140.423 149.757 133.228 146.416 126.033 144.062C125.809 143.988 125.585 143.92 125.362 143.849C124.544 133.872 126.263 123.887 127.814 114.095C128.564 109.362 129.428 104.579 129.569 99.7623C129.687 95.7342 129.201 91.4834 127.153 88.0552C123.142 81.3395 114.799 80.9096 108.823 84.407C103.011 87.8091 99.9216 94.7045 98.5047 101.677C96.2405 99.9065 93.7914 98.4411 91.1127 97.6098C87.5343 96.4998 83.5435 96.6482 80.1915 98.5196C76.7388 100.448 74.5422 104.259 73.872 108.422C72.3859 117.651 78.1143 125.73 84.5401 130.728C91.6896 136.289 100.226 138.934 108.64 141.04C113.812 142.334 119.031 143.45 124.141 144.997C124.842 152.109 126.812 159.194 130.62 164.987C132.954 168.539 135.95 171.478 139.433 173.577C143.164 175.827 147.342 177.115 151.55 177.636C152.526 177.756 153.51 177.84 154.497 177.888C154.776 181.595 154.605 185.36 154.085 189.006C152.773 198.215 149.36 207.423 143.059 213.805C137.283 219.656 128.718 222.655 121.105 219.969C113.852 217.409 108.666 210.571 102.372 206.168C99.7084 204.305 96.8159 202.94 93.7033 202.496C93.7206 202.544 93.7342 202.595 93.7421 202.65C93.8086 203.098 93.663 203.537 93.4356 203.901C100.567 204.791 106.05 211.078 111.529 215.641C114.502 218.117 117.682 220.38 121.279 221.543C125.011 222.75 129.008 222.646 132.758 221.591C140.741 219.345 147.003 212.867 150.8 204.918C154.635 196.891 156.431 187.305 155.85 178.245C155.843 178.139 155.831 178.034 155.824 177.928C162.551 178.032 169.406 176.445 175.338 172.997C182.408 168.889 187.988 161.601 189.416 152.743ZM101.695 137.621C93.6289 135.105 85.3927 131.247 79.7513 124.102C77.168 120.83 75.203 116.743 74.9693 112.337C74.7476 108.167 76.0424 103.662 79.0848 101.019C82.0443 98.4481 86.0414 97.9111 89.6465 98.718C92.7921 99.4214 95.6358 101.142 98.216 103.238C98.0326 104.327 97.888 105.41 97.7779 106.477C97.3619 110.53 96.884 115.862 100.06 118.778C101.383 119.993 103.226 120.671 104.902 120.009C106.528 119.366 107.55 117.65 107.843 115.816C108.573 111.253 105.128 107.808 102.354 105.09C101.486 104.24 100.589 103.41 99.6607 102.623C99.7508 102.143 99.8446 101.665 99.9505 101.189C100.909 96.8663 102.571 92.6545 105.289 89.3321C107.669 86.424 110.839 84.4675 114.349 83.8689C117.572 83.3192 121.099 83.8579 123.746 86.1028C130.157 91.5393 128.295 102.215 127.155 109.777C125.592 120.147 123.493 130.586 123.88 141.165C123.908 141.919 123.953 142.675 124.008 143.432C116.633 141.217 109.054 139.917 101.695 137.621ZM99.3887 104.231C99.9096 104.689 100.421 105.157 100.92 105.634C103.561 108.157 107.582 111.697 106.435 116.12C105.956 117.969 104.463 119.158 102.725 118.707C100.88 118.229 99.6623 116.454 99.1671 114.514C98.619 112.368 98.7804 110.027 98.9643 107.834C99.0649 106.628 99.2069 105.426 99.3887 104.231ZM134.625 167.899C129.141 162.037 126.412 153.677 125.509 145.424C127.776 146.15 130.019 146.969 132.222 147.944C139.17 151.016 145.85 155.578 150.023 162.649C152.481 166.814 153.832 171.547 154.364 176.425C147.141 176.06 139.91 173.549 134.625 167.899Z" fill="#DD7C79"/>
<mask id="mask0_2304_1806" style="mask-type:luminance" maskUnits="userSpaceOnUse" x="0" y="0" width="262" height="291">
<path d="M262 0H0V290.873H262V0Z" fill="white"/>
</mask>
<g mask="url(#mask0_2304_1806)">
<path d="M82.3209 278.854C82.3209 278.854 76.0597 272.003 65.8505 267.215C55.6413 262.427 42.8313 261.275 42.8313 261.275C42.8313 261.275 51.1829 280.579 60.4765 281.602C69.7709 282.623 82.3209 278.854 82.3209 278.854Z" fill="#52433A"/>
<path d="M50.5837 340.883C50.5837 340.883 59.056 301.96 69.7647 282.624C80.4735 263.287 80.7841 262.542 83.1951 260.774C85.6062 259.007 98.4036 245.909 102.13 241.462C105.857 237.015 107.612 232.544 111.152 227.383C114.692 222.222 121.751 215.887 122.804 213.336C123.857 210.785 119.098 207.873 114.526 209.924C109.954 211.975 109.067 213.058 102.691 220.319C96.3146 227.579 94.6393 226.474 94.6393 226.474C94.6393 226.474 93.3893 218.092 93.2856 214.909C93.182 211.726 97.1763 206.664 97.1763 206.664C97.1763 206.664 99.6878 205.871 100.672 204.329C101.656 202.787 100.709 202.233 100.709 202.233C100.709 202.233 105.659 195.078 107.04 194.449C107.04 194.449 112.461 196.433 114.484 195.147C116.507 193.861 117.716 192.224 117.962 191.165C118.208 190.105 114.326 188.042 114.326 188.042C114.326 188.042 119.415 186.016 120.747 184.778C122.078 183.54 122.764 181.078 122.764 181.078C122.764 181.078 125.789 180.286 126.571 177.877C127.354 175.467 126.529 172.228 125.938 171.964C125.346 171.699 121.666 173.077 117.922 174.469C114.178 175.86 106.028 178.017 104.438 178.508C102.849 178.999 100.197 180.769 99.4196 181.405C99.4196 181.405 91.9207 179.747 89.9481 179.335C87.9755 178.923 85.5756 180.373 83.9733 181.753C82.3711 183.133 79.0371 187 77.6471 187.376C76.2565 187.752 74.9924 187.326 72.3893 189.765C69.7861 192.204 63.8857 202.521 61.4599 207.545C59.0335 212.57 57.9866 221.416 55.4991 227.538C53.0116 233.66 53.8444 245.074 48.0231 257.657C42.2019 270.239 15.6137 317.086 15.6137 317.086L50.5837 340.883Z" fill="#F7E8E0"/>
<path d="M96.7072 197.837C96.6484 197.769 96.5763 197.697 96.4949 197.7C96.4383 197.698 96.3843 197.734 96.3367 197.768C95.6815 198.265 95.3499 199.184 95.3707 200.064C95.3938 200.939 95.7347 201.779 96.2021 202.492C96.6696 203.205 97.2565 203.808 97.8414 204.399C98.5354 203.39 99.5349 202.643 100.637 202.314C99.3262 200.82 98.0185 199.33 96.7072 197.837Z" fill="#EEBFA6"/>
<path d="M117.554 190.285C115.907 188.838 114.057 187.672 112.092 186.847C111.975 187.157 111.971 187.525 111.988 187.867C112.009 188.454 112.053 189.063 112.302 189.58C112.606 190.204 113.167 190.618 113.707 190.997C114.298 191.421 114.892 191.842 115.486 192.263C115.522 192.29 115.557 192.31 115.596 192.316C115.679 192.327 115.744 192.247 115.798 192.176C116.317 191.47 116.907 190.837 117.554 190.285Z" fill="#EEBFA6"/>
<path d="M125.942 171.935C125.844 171.896 125.737 171.915 125.63 171.934C123.721 172.309 121.851 172.932 120.069 173.78C120.196 174.564 120.893 175.127 121.607 175.275C122.33 175.417 123.072 175.226 123.784 175.007C124.786 174.703 125.857 174.286 126.43 173.321C126.479 173.241 126.523 173.151 126.519 173.055C126.51 172.906 126.394 172.802 126.327 172.679C126.181 172.433 126.187 172.044 125.942 171.935Z" fill="#EEBFA6"/>
<path d="M59.6929 260.214C59.69 260.224 59.6876 260.234 59.6857 260.245C59.6558 260.402 59.7462 260.556 59.8879 260.589C64.0691 261.568 68.2009 262.959 72.1683 264.722C72.3024 264.781 72.4552 264.709 72.5089 264.56C72.5667 264.415 72.4979 264.241 72.3628 264.182C68.3675 262.407 64.2066 261.006 59.996 260.02C59.8636 259.989 59.7338 260.075 59.6929 260.214Z" fill="#483026"/>
<path d="M69.9365 222.492C69.9075 222.591 69.9273 222.704 69.997 222.784C72.6114 225.796 75.5426 229.473 77.4639 233.904C79.4437 238.47 79.9918 243.236 79.0086 247.322C78.9714 247.477 79.0542 247.637 79.1937 247.678C79.3331 247.719 79.4916 247.629 79.5145 247.472C80.531 243.251 79.9703 238.343 77.9361 233.652C75.9831 229.146 73.018 225.425 70.3748 222.38C70.2743 222.264 70.1084 222.261 70.0041 222.372C69.9714 222.407 69.9493 222.449 69.9365 222.492Z" fill="#483026"/>
<path d="M65.6111 219.638C65.6082 219.648 65.6056 219.658 65.6037 219.669C65.5741 219.826 65.6651 219.98 65.8072 220.013C67.9555 220.507 70.23 220.533 72.3857 220.086C73.7276 219.808 75.0455 219.347 76.3204 218.901L87.6965 214.918C87.8347 214.87 87.9102 214.706 87.8679 214.553C87.8246 214.4 87.677 214.315 87.5395 214.363L76.1652 218.345C74.9032 218.787 73.6005 219.243 72.2896 219.515C70.2008 219.948 67.9954 219.923 65.9138 219.443C65.7811 219.413 65.6519 219.498 65.6111 219.638Z" fill="#483026"/>
<path d="M94.3815 226.384C94.3692 226.426 94.3657 226.472 94.3723 226.519C94.7886 229.451 94.4613 234.638 94.4577 234.689C94.4472 234.85 94.5562 234.989 94.7001 235C94.8448 235.012 94.9691 234.89 94.9799 234.731C94.9939 234.516 95.3143 229.426 94.8892 226.428C94.8667 226.27 94.7326 226.161 94.5898 226.186C94.4888 226.204 94.411 226.283 94.3815 226.384Z" fill="#483026"/>
<path d="M96.734 228.904C96.7055 229.002 96.7246 229.113 96.7921 229.193C97.2315 229.714 97.6008 230.289 97.8879 230.903C98.4847 232.177 98.7376 233.627 98.9828 235.029C99.0104 235.187 99.1483 235.29 99.2901 235.259C99.4324 235.229 99.5246 235.075 99.4974 234.918C99.2452 233.475 98.985 231.983 98.3527 230.634C98.0431 229.973 97.6463 229.354 97.1742 228.795C97.0751 228.678 96.9094 228.672 96.8039 228.782C96.7705 228.817 96.7473 228.859 96.734 228.904Z" fill="#483026"/>
<path d="M15.3741 316.993C15.338 317.116 15.3797 317.256 15.4836 317.328C15.6061 317.414 15.7679 317.374 15.8447 317.237C16.1108 316.769 42.5062 270.236 48.266 257.787C51.8526 250.037 52.9272 242.718 53.7914 236.838C54.3312 233.164 54.7965 229.991 55.7475 227.655C56.942 224.714 57.8065 221.152 58.643 217.707C59.569 213.887 60.4453 210.279 61.701 207.679C64.0367 202.842 69.9368 192.45 72.5686 189.984C74.522 188.153 75.6529 187.992 76.747 187.836C77.0776 187.789 77.3898 187.745 77.7194 187.656C78.7216 187.385 80.5534 185.533 82.1694 183.899C82.9206 183.139 83.6303 182.422 84.1437 181.98C84.9259 181.306 87.6523 179.146 89.9098 179.618C91.8585 180.025 99.3036 181.671 99.3781 181.687C99.4506 181.703 99.5254 181.685 99.5849 181.636C100.364 180.999 102.981 179.26 104.518 178.785C104.942 178.654 105.835 178.405 106.985 178.082C110.081 177.215 115.264 175.764 118.016 174.741L118.242 174.656C121.404 173.482 125.338 172.019 125.851 172.23C126.215 172.401 127.123 175.349 126.335 177.774C125.611 180.005 122.742 180.784 122.714 180.791C122.623 180.815 122.546 180.909 122.524 180.988C122.517 181.012 121.845 183.384 120.589 184.552C119.309 185.743 114.298 187.745 114.247 187.765C114.147 187.804 114.079 187.907 114.074 188.023C114.068 188.141 114.127 188.25 114.222 188.301C116.187 189.345 117.82 190.648 117.718 191.088C117.497 192.038 116.355 193.625 114.363 194.891C112.464 196.098 107.184 194.189 107.131 194.169C107.071 194.148 107.007 194.15 106.949 194.177C105.544 194.817 101.021 201.314 100.51 202.053C100.463 202.121 100.446 202.209 100.462 202.292C100.479 202.376 100.528 202.447 100.596 202.487C100.602 202.49 100.793 202.614 100.85 202.899C100.917 203.227 100.784 203.663 100.468 204.158C99.5487 205.597 97.1383 206.374 97.1142 206.381C97.0661 206.397 97.022 206.427 96.9887 206.469C96.8234 206.68 92.9265 211.657 93.0333 214.916C93.1367 218.081 94.3399 226.175 94.3906 226.517C94.4033 226.602 94.4494 226.676 94.5153 226.72C94.705 226.846 96.5506 227.735 102.888 220.519L103.317 220.03C109.298 213.218 110.217 212.171 114.634 210.19C117.61 208.855 120.779 209.672 122.122 211.234C122.443 211.606 122.928 212.363 122.575 213.212C122.06 214.463 119.996 216.71 117.607 219.312C115.308 221.816 112.702 224.655 110.954 227.204C109.49 229.338 108.333 231.348 107.215 233.291C105.626 236.054 104.125 238.664 101.948 241.261C98.094 245.86 85.3849 258.825 83.0602 260.529C80.7601 262.215 80.4141 262.84 71.5461 278.864L69.5506 282.468C58.943 301.623 50.4226 340.422 50.3383 340.811C50.3043 340.967 50.3905 341.125 50.5309 341.162C50.6714 341.2 50.8237 341.111 50.8471 340.948C50.9328 340.559 59.4329 301.849 69.9969 282.773L71.9926 279.168C80.8015 263.25 81.1454 262.629 83.3486 261.014C85.69 259.298 98.4641 246.273 102.332 241.657C104.541 239.021 106.055 236.39 107.657 233.605C108.77 231.671 109.92 229.671 111.37 227.556C113.096 225.04 115.688 222.218 117.974 219.727C120.4 217.084 122.495 214.803 123.052 213.454C123.407 212.588 123.213 211.66 122.501 210.832C121.037 209.13 117.62 208.224 114.437 209.651C109.918 211.677 108.989 212.736 102.942 219.624L102.512 220.113C97.3387 226.004 95.3421 226.277 94.879 226.234C94.6941 224.974 93.65 217.76 93.5562 214.895C93.4618 212.048 96.8824 207.502 97.3334 206.916C97.7787 206.765 99.9557 205.964 100.895 204.495C101.309 203.844 101.466 203.259 101.357 202.754C101.302 202.496 101.188 202.31 101.081 202.184C102.521 200.12 105.934 195.428 107.066 194.758C107.846 195.033 112.655 196.648 114.623 195.396C116.758 194.039 117.97 192.321 118.225 191.234C118.462 190.214 116.249 188.792 114.997 188.079C116.379 187.506 119.83 186.017 120.925 184.998C122.119 183.888 122.8 181.891 122.978 181.316C123.612 181.121 126.098 180.219 126.828 177.972C127.598 175.59 126.881 172.064 126.046 171.69C125.443 171.421 123.039 172.261 118.076 174.105L117.849 174.189C115.116 175.205 109.946 176.653 106.857 177.518C105.7 177.842 104.804 178.093 104.378 178.225C102.765 178.723 100.22 180.423 99.3689 181.092C98.4259 180.884 91.8266 179.426 90.0071 179.046C87.6021 178.544 84.881 180.609 83.8233 181.52C83.2923 181.976 82.5756 182.701 81.8159 183.469C80.3243 184.977 78.4674 186.854 77.5951 187.09C77.2936 187.172 76.9957 187.214 76.6801 187.259C75.5648 187.418 74.3016 187.598 72.2303 189.54C69.5512 192.05 63.5913 202.533 61.2388 207.404C59.9553 210.063 59.0723 213.702 58.1369 217.555C57.3064 220.978 56.4473 224.518 55.2699 227.415C54.2926 229.821 53.8212 233.03 53.2746 236.744C52.4156 242.584 51.3469 249.852 47.8005 257.521C42.0511 269.948 15.6676 316.459 15.4021 316.927C15.3899 316.948 15.3806 316.971 15.3741 316.993Z" fill="#483026"/>
<path d="M75.7128 206.193C75.6857 206.285 75.701 206.391 75.7619 206.471C75.855 206.594 76.0209 206.609 76.1317 206.505C77.4228 205.29 80.4042 200.457 80.995 199.491C82.5196 199.771 85.5288 198.943 86.2198 198.743C86.8344 199.354 89.9905 202.477 91.9725 204.223C94.2053 206.19 96.9908 206.917 97.1082 206.947C97.2486 206.983 97.3833 206.884 97.4222 206.729C97.4548 206.572 97.3666 206.416 97.2256 206.38C97.1979 206.373 94.4349 205.65 92.2983 203.767C90.1177 201.846 86.5005 198.242 86.4642 198.206C86.3981 198.14 86.306 198.116 86.2201 198.142C86.1821 198.153 82.4117 199.281 80.9368 198.886C80.8301 198.857 80.7185 198.905 80.6581 199.006C80.623 199.064 77.1442 204.79 75.7924 206.062C75.7541 206.097 75.7274 206.143 75.7128 206.193Z" fill="#483026"/>
<path d="M71.2052 206.299C71.1936 206.339 71.1896 206.382 71.1947 206.427C71.2142 206.586 71.3457 206.698 71.4892 206.676C71.5236 206.672 74.9429 206.177 78.0168 206.779C78.159 206.807 78.2932 206.702 78.3204 206.543C78.3457 206.386 78.2505 206.234 78.1083 206.206C74.9522 205.588 71.5628 206.078 71.4203 206.1C71.3168 206.115 71.2355 206.195 71.2052 206.299Z" fill="#483026"/>
<path d="M79.3906 196.718C79.3683 196.794 79.3745 196.88 79.4138 196.955L80.6606 199.315C80.7337 199.454 80.894 199.501 81.0193 199.419C81.1433 199.338 81.1859 199.16 81.1127 199.021L79.8658 196.66C79.7928 196.522 79.6322 196.476 79.5072 196.557C79.4499 196.594 79.4097 196.652 79.3906 196.718Z" fill="#483026"/>
<path d="M86.0606 197.197C86.0526 197.224 86.0479 197.253 86.0473 197.284L86.0361 198.419C86.0347 198.58 86.1506 198.711 86.2955 198.713C86.4403 198.715 86.5584 198.589 86.5603 198.426L86.5714 197.29C86.5728 197.129 86.4569 196.998 86.3121 196.996C86.1952 196.994 86.0949 197.079 86.0606 197.197Z" fill="#483026"/>
<path d="M77.396 187.285C77.3892 187.308 77.3849 187.332 77.3836 187.357C77.3753 187.518 77.4854 187.655 77.6296 187.665C82.9211 188.017 88.8141 188.612 89.3131 189.024C89.9666 189.562 91.9196 191.927 94.8135 195.684C96.9098 198.406 100.485 202.398 100.521 202.438C100.623 202.551 100.789 202.552 100.892 202.439C100.994 202.325 100.994 202.142 100.892 202.027C100.856 201.987 97.2949 198.011 95.2113 195.305C93.1468 192.625 90.5021 189.278 89.6252 188.556C88.775 187.856 79.5096 187.207 77.6608 187.084C77.5391 187.076 77.4321 187.161 77.396 187.285Z" fill="#483026"/>
<path d="M90.8834 190.494C90.8757 190.521 90.871 190.55 90.8703 190.579C90.8679 190.739 90.9833 190.872 91.128 190.875C91.2062 190.877 98.9779 191.026 100.854 191.286C102.747 191.547 106.867 194.655 106.909 194.686C107.029 194.777 107.192 194.743 107.273 194.61C107.354 194.478 107.324 194.297 107.204 194.206C107.031 194.075 102.937 190.987 100.919 190.708C99.0147 190.445 91.4573 190.299 91.1362 190.293C91.0189 190.291 90.9181 190.376 90.8834 190.494Z" fill="#483026"/>
<path d="M99.1649 181.313C99.1618 181.324 99.1591 181.335 99.1572 181.347C99.1288 181.505 99.2211 181.658 99.3628 181.689C99.8055 181.787 100.235 181.878 100.652 181.967C103.142 182.495 105.108 182.912 106.977 184.054C109.184 185.402 114.149 188.27 114.199 188.299C114.328 188.373 114.485 188.317 114.552 188.175C114.619 188.033 114.569 187.857 114.441 187.782C114.391 187.753 109.43 184.888 107.23 183.543C105.288 182.357 103.186 181.911 100.751 181.395C100.335 181.307 99.9064 181.216 99.4655 181.118C99.3331 181.089 99.2054 181.175 99.1649 181.313Z" fill="#483026"/>
<path d="M111.264 186.313C111.241 186.393 111.249 186.484 111.294 186.561C111.372 186.695 111.534 186.734 111.656 186.647C111.688 186.624 114.924 184.313 117.056 183.598C119.233 182.869 122.83 181.366 122.866 181.351C123.002 181.294 123.069 181.125 123.019 180.976C122.968 180.826 122.817 180.749 122.681 180.806C122.645 180.821 119.064 182.318 116.905 183.042C114.701 183.78 111.507 186.062 111.371 186.159C111.319 186.196 111.282 186.251 111.264 186.313Z" fill="#483026"/>
<path d="M96.8244 197.933C96.7896 198.052 96.8272 198.187 96.9238 198.262C97.0429 198.353 97.2057 198.32 97.2884 198.189C98.1783 196.767 103.704 192.438 103.759 192.394C103.878 192.302 103.905 192.12 103.822 191.989C103.739 191.857 103.576 191.826 103.457 191.919C103.227 192.1 97.8001 196.352 96.8581 197.857C96.8435 197.881 96.8322 197.906 96.8244 197.933Z" fill="#483026"/>
<path d="M84.8928 188.401C85.01 191.845 85.1267 195.289 85.2439 198.732C85.2555 199.084 84.9479 199.365 84.6492 199.403C84.4052 199.578 84.0831 199.581 83.8613 199.239C82.0304 196.42 80.6595 193.276 79.796 189.948C79.2553 192.983 79.8156 196.237 81.469 198.776C81.9597 199.53 80.9641 200.481 80.4678 199.718C78.1003 196.081 77.5845 191.126 79.2556 187.018C79.5133 186.385 80.3878 186.358 80.5208 187.119C81.1101 190.486 82.248 193.712 83.8668 196.626C83.7723 193.851 83.6783 191.075 83.5844 188.299C83.5711 187.906 83.9581 187.598 84.2847 187.623C84.6698 187.653 84.8794 188.006 84.8928 188.401Z" fill="#DD7C79"/>
<path d="M42.8257 261.275C39.2761 261.75 35.6594 262.813 33.8091 266.066C33.0117 267.473 32.6405 269.156 31.7181 270.462C30.9008 271.617 29.7211 272.372 28.66 273.249C26.0598 275.394 24.0538 278.408 22.9749 281.793C22.0551 284.673 21.7718 287.843 20.2948 290.424C18.0367 294.374 13.6378 295.925 10.0639 298.404C5.27278 301.728 0.988537 309.383 -0.441303 315.473C15.5274 326.047 36.849 338.4 52.8177 348.974C54.3469 346.027 56.6 343.769 59.1609 340.967C62.952 336.805 67.0942 332.855 69.6504 327.661C71.4759 323.946 72.4063 319.694 72.3161 315.465C72.2541 312.458 71.6898 309.416 72.2181 306.462C72.9445 302.436 75.559 299.226 77.552 295.767C80.4489 290.726 82.1038 284.827 82.3148 278.853C77.5412 279.407 72.5087 279.904 66.922 280.036C64.7482 280.083 62.5242 280.058 60.4642 279.284C58.3377 278.493 56.5143 276.948 54.7999 275.351C50.3355 271.196 46.3095 266.465 42.8257 261.275Z" fill="#CBD9D1"/>
<path d="M37.5766 263.748C43.5813 276.957 55.3235 286.227 68.5656 288.05C72.4462 288.585 76.3777 288.506 80.235 287.795C81.2315 287.611 81.5694 289.316 80.5701 289.5C73.4921 290.806 66.1443 290.092 59.3869 287.401C52.9592 284.842 47.1618 280.495 42.5749 274.884C40.0356 271.777 37.8785 268.285 36.176 264.541C35.7195 263.536 37.1196 262.743 37.5766 263.748Z" fill="#ADBFB2"/>
<path d="M32.6978 271.301C39.5996 283.643 50.5622 292.809 63.1456 296.786C66.9507 297.988 70.8615 298.7 74.8109 298.937C75.8218 298.997 75.7506 300.741 74.7397 300.68C60.8281 299.847 47.5384 293.034 37.9821 281.775C35.4641 278.809 33.2327 275.556 31.2967 272.093C30.7632 271.137 32.1674 270.351 32.6978 271.301Z" fill="#ADBFB2"/>
</g>
<mask id="mask1_2304_1806" style="mask-type:luminance" maskUnits="userSpaceOnUse" x="0" y="0" width="262" height="291">
<path d="M262 0H0V290.873H262V0Z" fill="white"/>
</mask>
<g mask="url(#mask1_2304_1806)">
<path d="M286.826 22.9741L293.127 91.6499C292.318 92.1223 291.449 92.4743 290.55 92.732C288.241 93.3934 285.712 93.4208 283.311 93.2235C281.92 93.1124 280.516 92.9397 279.111 92.8105C277.875 92.7011 276.641 92.6261 275.417 92.6523C273.982 92.6825 272.561 92.8536 271.171 93.2788C267.866 94.287 264.99 96.6617 261.655 97.5465C261.042 97.7088 260.423 97.8223 259.797 97.8932C256.337 98.3185 252.705 97.7239 249.5 99.2039C249.239 99.3261 248.983 99.4576 248.737 99.6024C245.918 101.219 243.775 104.16 240.868 105.631C238.83 106.662 236.482 106.845 234.309 106.251C233.084 105.921 231.914 105.341 230.886 104.53C229.263 105.621 227.635 106.708 226.011 107.794C225.023 106.984 224.081 106.109 223.191 105.17C217.027 98.6937 213.277 89.3875 213.151 79.9638C213.136 79.2773 213.148 78.5926 213.178 77.9114C215.373 76.6822 217.568 75.4535 219.762 74.219C219.972 70.0421 220.587 65.5272 223.328 62.9285C223.523 62.7452 223.727 62.5713 223.944 62.4049C226.488 60.4776 229.865 60.6323 232.691 59.2833C235.496 57.9464 237.482 55.3111 239.532 52.7316C240.418 51.6164 241.315 50.5146 242.297 49.5297C242.712 49.112 243.146 48.7164 243.595 48.3482C247.429 45.2405 252.414 44.5302 256.625 42.0921C257.235 41.7401 257.823 41.3515 258.397 40.9402C262.31 38.1263 265.453 34.0616 269.159 30.8562C274.229 26.4727 280.435 23.7409 286.826 22.9741Z" fill="#EEBFA6"/>
<path d="M213.147 79.9653C211.863 81.1108 210.58 82.2563 209.296 83.4069C206.712 85.7194 204.117 88.0382 201.245 89.8905C193.56 94.854 184.47 96.1501 175.793 98.3125C173.65 98.8523 171.306 99.6104 170.008 101.514C168.234 102.154 166.717 103.584 165.619 105.275C164.506 106.992 163.778 108.967 163.175 110.978C158.91 114.603 153.102 115.786 149.172 119.905C148.065 121.06 147.147 122.413 146.276 123.795C145.045 125.75 143.903 127.773 142.761 129.795C140.715 133.418 138.665 137.041 136.62 140.664C136.148 141.508 135.657 142.383 135.558 143.371C135.532 143.613 135.533 143.866 135.616 144.096C135.78 144.541 136.219 144.774 136.636 144.917C138.59 145.565 140.739 144.946 142.487 143.777C144.231 142.609 145.646 140.927 147.032 139.272C148.708 137.272 150.38 135.277 152.056 133.277C150.95 137.228 149.949 141.215 149.052 145.236C148.846 146.152 148.645 147.082 148.675 148.026C148.7 148.921 148.929 149.788 149.119 150.659C149.452 152.178 149.674 153.73 149.777 155.294C149.818 155.933 149.865 156.636 150.272 157.092C150.615 157.478 151.14 157.594 151.627 157.539C153.307 157.359 154.448 155.566 155.098 153.838C155.807 151.933 156.213 149.891 156.284 147.833C156.312 147.083 156.294 146.319 156.438 145.585C156.563 144.932 156.805 144.314 157.047 143.701C158.637 139.705 160.234 135.694 162.157 131.89C164.063 139.204 164.524 146.911 166.2 154.305C166.407 155.224 166.642 156.158 167.148 156.921C167.276 157.116 167.433 157.303 167.638 157.373C167.861 157.45 168.095 157.374 168.311 157.282C169.711 156.684 170.782 155.334 171.362 153.799C171.843 152.52 172.009 151.12 171.987 149.732C172.082 149.672 172.177 149.603 172.268 149.534C178.258 144.977 184.688 141.137 191.416 138.102C194.945 136.507 198.58 135.12 201.823 132.899C206.711 129.555 210.457 124.486 213.523 119.093C216.357 114.102 218.88 108.537 223.186 105.171C217.024 98.6953 213.273 89.3891 213.147 79.9653ZM173.011 138.369C172.595 138.817 172.189 139.277 171.803 139.76C171.803 139.76 171.139 131.71 170.937 130.328L171.552 129.033C171.552 129.033 172.527 136.692 173.444 137.672L173.552 137.801C173.372 137.986 173.192 138.178 173.011 138.369ZM179.358 132.562C179.358 132.562 178.512 129.817 178.736 128.084C178.955 126.351 180.452 122.161 180.452 122.161C180.452 122.161 186.262 124.066 186.502 125.82L179.358 132.562Z" fill="#F7E8E0"/>
<path d="M214.358 80.4402C214.265 80.4402 214.174 80.3849 214.127 80.2866C214.058 80.1453 214.107 79.969 214.234 79.8928L219.395 76.8153C219.522 76.7397 219.681 76.7921 219.75 76.934C219.819 77.0754 219.77 77.2516 219.643 77.3279L214.482 80.4053C214.442 80.4292 214.4 80.4402 214.358 80.4402Z" fill="#483026"/>
<path d="M229.541 87.2158C229.512 87.2158 229.483 87.2106 229.454 87.1995C224.976 85.4491 221.566 80.9609 220.765 75.7659C220.741 75.6076 220.837 75.457 220.98 75.4302C221.119 75.4023 221.257 75.5093 221.282 75.6676C222.039 80.581 225.393 84.9947 229.628 86.6504C229.765 86.7039 229.836 86.8697 229.788 87.0215C229.75 87.1408 229.649 87.2158 229.541 87.2158Z" fill="#483026"/>
<path d="M229.828 99.875C229.736 99.875 229.647 99.8209 229.598 99.7255C227.572 95.6678 227.057 90.7788 228.188 86.3116C228.228 86.1569 228.37 86.0661 228.512 86.1103C228.651 86.1539 228.732 86.3145 228.693 86.4693C227.599 90.7899 228.096 95.5189 230.057 99.4434C230.128 99.5842 230.082 99.761 229.955 99.839C229.915 99.8634 229.871 99.875 229.828 99.875Z" fill="#483026"/>
<path d="M214.973 86.3366C214.882 86.3366 214.792 86.2825 214.744 86.1871C214.674 86.0463 214.719 85.8694 214.846 85.7915L220.796 82.1195C220.921 82.0421 221.081 82.0916 221.152 82.2323C221.223 82.3725 221.177 82.5494 221.051 82.6279L215.101 86.2999C215.06 86.3244 215.017 86.3366 214.973 86.3366Z" fill="#483026"/>
<path d="M216.686 89.8078C216.596 89.8078 216.507 89.7554 216.459 89.6617C216.386 89.5227 216.43 89.3447 216.556 89.265C218.888 87.781 221.198 86.1893 223.423 84.5331C223.543 84.4441 223.707 84.479 223.786 84.6128C223.867 84.7466 223.835 84.9269 223.715 85.0165C221.479 86.6797 219.158 88.2789 216.816 89.7694C216.775 89.795 216.731 89.8078 216.686 89.8078Z" fill="#483026"/>
<path d="M218.022 93.3723C217.925 93.3723 217.831 93.3123 217.786 93.2088C217.723 93.0639 217.777 92.89 217.907 92.8196L226.132 88.3704C226.26 88.3012 226.419 88.3593 226.482 88.5042C226.546 88.6491 226.492 88.823 226.362 88.8934L218.136 93.3426C218.1 93.3629 218.06 93.3723 218.022 93.3723Z" fill="#483026"/>
<path d="M219.333 98.0515C219.243 98.0515 219.155 97.9997 219.106 97.9072C219.033 97.7682 219.075 97.5901 219.201 97.5093C221.637 95.9333 224.153 94.4272 226.678 93.0339C226.806 92.9623 226.965 93.0211 227.029 93.1648C227.093 93.3085 227.04 93.483 226.911 93.5546C224.396 94.942 221.891 96.4418 219.464 98.0119C219.423 98.0387 219.378 98.0515 219.333 98.0515Z" fill="#483026"/>
<path d="M222.489 102.314C222.413 102.314 222.338 102.278 222.286 102.208C222.194 102.084 222.211 101.901 222.322 101.798C223.91 100.35 225.6 99.0007 227.344 97.7889C227.467 97.704 227.629 97.7447 227.705 97.8814C227.782 98.0175 227.744 98.1967 227.622 98.2822C225.897 99.4812 224.226 100.815 222.655 102.247C222.607 102.293 222.548 102.314 222.489 102.314Z" fill="#483026"/>
<path d="M224.563 105.68C224.491 105.68 224.419 105.647 224.367 105.582C224.27 105.462 224.281 105.278 224.389 105.171L228.177 101.448C228.284 101.341 228.45 101.352 228.546 101.473C228.643 101.592 228.632 101.777 228.524 101.883L224.736 105.607C224.686 105.656 224.625 105.68 224.563 105.68Z" fill="#483026"/>
<path d="M173.566 138.092C173.497 138.092 173.428 138.061 173.376 138.001C173.277 137.885 173.281 137.701 173.387 137.59C173.929 137.02 178.993 132.526 179.208 132.335C179.322 132.236 179.486 132.256 179.576 132.381C179.666 132.506 179.648 132.689 179.535 132.79C179.482 132.836 174.274 137.459 173.747 138.013C173.696 138.065 173.631 138.092 173.566 138.092Z" fill="#483026"/>
<path d="M152.065 133.567C152.001 133.567 151.936 133.541 151.886 133.489C151.78 133.379 151.774 133.195 151.873 133.078C152.104 132.804 157.549 126.356 160.681 124.665C162.807 123.517 165.406 123.007 167.919 122.515C169.17 122.27 170.352 122.038 171.465 121.735C174.874 120.803 180.277 121.828 180.506 121.873C180.648 121.9 180.744 122.051 180.719 122.209C180.694 122.368 180.554 122.472 180.416 122.446C180.361 122.435 174.893 121.398 171.59 122.299C170.46 122.607 169.27 122.841 168.011 123.087C165.533 123.573 162.971 124.075 160.911 125.187C157.866 126.831 152.313 133.408 152.257 133.474C152.204 133.536 152.135 133.567 152.065 133.567Z" fill="#483026"/>
<path d="M162.163 132.181C162.123 132.181 162.084 132.171 162.046 132.151C161.917 132.08 161.863 131.905 161.927 131.761C162.044 131.5 164.791 125.36 166.805 124.114C166.931 124.036 167.09 124.086 167.161 124.226C167.232 124.367 167.186 124.544 167.06 124.622C165.188 125.781 162.425 131.957 162.397 132.019C162.352 132.122 162.259 132.181 162.163 132.181Z" fill="#483026"/>
<path d="M169.84 124.741C167.067 124.741 165.448 124.176 165.335 124.135C165.198 124.086 165.123 123.922 165.167 123.769C165.212 123.616 165.359 123.533 165.497 123.582C165.543 123.599 170.193 125.211 177.338 122.902C177.478 122.857 177.622 122.946 177.662 123.1C177.703 123.254 177.623 123.415 177.484 123.46C174.426 124.449 171.834 124.741 169.84 124.741Z" fill="#483026"/>
<path d="M171.557 129.323C171.518 129.323 171.478 129.313 171.44 129.292C171.31 129.22 171.258 129.045 171.322 128.901C171.339 128.865 172.973 125.23 173.302 124.074C173.346 123.921 173.493 123.836 173.631 123.884C173.769 123.932 173.845 124.096 173.802 124.249C173.461 125.449 171.859 129.011 171.791 129.161C171.745 129.263 171.653 129.323 171.557 129.323Z" fill="#483026"/>
<path d="M186.512 126.109C186.439 126.109 186.367 126.075 186.315 126.009C186.219 125.888 186.231 125.704 186.34 125.599C186.354 125.585 187.749 124.221 188.75 122.273C188.823 122.133 188.983 122.086 189.108 122.165C189.233 122.245 189.277 122.422 189.206 122.562C188.159 124.598 186.744 125.979 186.685 126.037C186.635 126.085 186.574 126.109 186.512 126.109Z" fill="#483026"/>
<path d="M163.174 111.268C163.084 111.268 162.996 111.216 162.948 111.123C162.875 110.984 162.918 110.806 163.043 110.726C163.171 110.643 166.215 108.695 168.819 107.808C168.957 107.761 169.104 107.847 169.147 108.001C169.188 108.155 169.111 108.317 168.973 108.364C166.426 109.231 163.336 111.209 163.306 111.229C163.264 111.256 163.219 111.268 163.174 111.268Z" fill="#483026"/>
<path d="M170.002 101.804C169.881 101.804 169.773 101.711 169.746 101.574C169.716 101.417 169.806 101.262 169.947 101.229C170.044 101.205 172.333 100.664 173.595 100.821C173.738 100.839 173.842 100.983 173.826 101.142C173.81 101.301 173.684 101.414 173.536 101.399C172.362 101.256 170.08 101.792 170.057 101.797C170.039 101.802 170.02 101.804 170.002 101.804Z" fill="#483026"/>
<path d="M151.06 153.161C151.297 154.067 151.349 155.017 151.401 155.963C151.406 156.075 151.402 156.212 151.319 156.27C151.265 156.31 151.199 156.303 151.137 156.301C150.775 156.283 150.414 156.328 150.068 156.431L150.063 156.432C150.001 156.424 149.937 156.393 149.888 156.345C149.776 156.226 149.755 156.038 149.738 155.864C149.616 154.428 149.493 152.993 149.37 151.552C149.365 151.509 149.365 151.455 149.383 151.414C149.424 151.327 149.533 151.319 149.622 151.338C149.998 151.413 150.33 151.678 150.567 152.012C150.805 152.346 150.952 152.749 151.06 153.161Z" fill="#E39590"/>
<path d="M140.238 137.2C140.446 137.694 140.376 138.272 140.262 138.802C139.891 140.552 139.069 142.178 137.923 143.444C137.823 143.553 137.711 143.668 137.572 143.684C137.481 143.699 137.395 143.67 137.304 143.641C136.756 143.463 136.204 143.287 135.651 143.11L135.574 143.285C135.634 142.697 135.912 142.173 136.186 141.664C136.986 140.183 137.787 138.701 138.583 137.221C138.703 137.002 138.831 136.773 139.031 136.643C139.455 136.371 140.03 136.706 140.238 137.2Z" fill="#E39590"/>
<path d="M168.688 156.121C168.657 156.217 168.566 156.266 168.486 156.31C168.091 156.516 167.702 156.716 167.311 156.916C167.424 157.001 167.532 157.081 167.645 157.161L167.444 157.072C167.008 156.926 166.825 156.371 166.698 155.887C166.387 154.663 166.073 153.445 165.76 152.226C165.69 151.951 165.62 151.666 165.66 151.383C165.696 151.105 165.882 150.826 166.133 150.788C166.255 150.774 166.376 150.809 166.487 150.865C167.04 151.139 167.361 151.771 167.615 152.382C168.088 153.514 168.444 154.703 168.682 155.921C168.694 155.989 168.704 156.055 168.688 156.121Z" fill="#E39590"/>
<path d="M175.915 146.595C175.903 146.89 175.686 147.109 175.482 147.293C174.759 147.936 173.986 148.521 173.181 149.032C172.902 149.205 172.61 149.379 172.293 149.415C172.189 149.427 172.083 149.425 171.985 149.411C171.285 149.31 170.714 148.593 170.288 147.924C169.929 147.365 169.57 146.752 169.572 146.063C169.573 145.541 169.782 145.049 170.046 144.619C170.505 143.864 171.138 143.246 171.865 142.827C172.014 142.732 172.17 142.656 172.331 142.584C172.411 142.546 172.495 142.512 172.584 142.517C172.805 142.531 172.946 142.773 173.057 142.985C173.724 144.217 174.648 145.275 175.735 146.059L175.577 145.965C175.444 145.862 175.292 145.777 175.144 145.711L175.577 145.965C175.78 146.122 175.93 146.33 175.915 146.595Z" fill="#E39590"/>
<path d="M171.996 150.024C171.969 150.024 171.941 150.018 171.913 150.008C168.726 148.818 168.067 145.943 168.472 143.843C168.918 141.533 171.556 139.597 171.668 139.515C171.789 139.429 171.952 139.466 172.03 139.6C172.11 139.735 172.076 139.915 171.955 140.003C171.929 140.021 169.385 141.89 168.985 143.965C168.608 145.92 169.223 148.389 172.08 149.457C172.217 149.508 172.291 149.673 172.245 149.825C172.208 149.947 172.106 150.024 171.996 150.024Z" fill="#483026"/>
<path d="M213.149 79.9604C211.865 81.1059 210.582 82.2514 209.298 83.4021C206.714 85.7145 204.119 88.0334 201.247 89.8856C193.562 94.8491 184.472 96.1452 175.795 98.3076C173.652 98.8475 171.308 99.6055 170.01 101.509C168.236 102.149 166.719 103.579 165.621 105.27C164.508 106.987 163.779 108.962 163.177 110.973C158.911 114.598 153.104 115.782 149.174 119.9C148.067 121.055 147.149 122.408 146.278 123.79C145.047 125.745 143.905 127.768 142.763 129.79C140.717 133.413 138.667 137.036 136.622 140.659C136.149 141.503 135.658 142.378 135.56 143.366C135.534 143.608 135.535 143.861 135.618 144.091C135.782 144.536 136.221 144.769 136.638 144.913C138.592 145.56 140.741 144.941 142.489 143.772C144.233 142.604 145.647 140.922 147.034 139.267C148.71 137.267 150.382 135.272 152.058 133.272C150.952 137.223 149.951 141.21 149.054 145.231C148.848 146.147 148.647 147.077 148.677 148.021C148.702 148.916 148.931 149.783 149.121 150.654C149.454 152.173 149.675 153.725 149.779 155.289C149.82 155.928 149.867 156.631 150.274 157.087C150.617 157.473 151.142 157.589 151.629 157.534C153.309 157.354 154.45 155.561 155.1 153.833C155.809 151.928 156.215 149.886 156.286 147.828C156.314 147.078 156.296 146.315 156.44 145.58C156.565 144.927 156.807 144.309 157.049 143.696C158.638 139.7 160.236 135.689 162.159 131.885C164.065 139.199 164.526 146.906 166.202 154.3C166.409 155.219 166.644 156.153 167.15 156.916C167.278 157.111 167.435 157.298 167.64 157.368C167.862 157.445 168.097 157.369 168.313 157.277C169.713 156.68 170.784 155.329 171.364 153.794C171.845 152.515 172.011 151.115 171.989 149.727C172.084 149.667 172.179 149.598 172.27 149.529C178.26 144.972 184.69 141.132 191.418 138.097C194.947 136.502 198.582 135.115 201.824 132.894C206.713 129.55 210.459 124.481 213.525 119.088C216.359 114.097 218.882 108.532 223.188 105.166M173.013 138.364C172.597 138.812 172.191 139.272 171.805 139.755C171.805 139.755 171.141 131.705 170.939 130.323L171.554 129.029C171.554 129.029 172.529 136.687 173.446 137.667L173.554 137.796C173.374 137.982 173.194 138.173 173.013 138.364ZM179.36 132.557C179.36 132.557 178.514 129.812 178.738 128.079C178.957 126.346 180.454 122.156 180.454 122.156C180.454 122.156 186.264 124.061 186.504 125.815L179.36 132.557Z" stroke="#483026" stroke-width="0.5" stroke-miterlimit="10" stroke-linecap="round" stroke-linejoin="round"/>
<path d="M239.208 61.0839C236.711 65.3388 231.584 68.6268 227.1 66.2353C225.247 65.4394 224.019 64.2707 223.32 62.9298C223.515 62.7465 223.719 62.5726 223.936 62.4062C226.48 60.4789 229.857 60.6336 232.683 59.2845C235.488 57.9477 237.474 55.3124 239.523 52.7329C241.069 54.7295 241.362 57.6783 239.208 61.0839Z" fill="#E3AA93"/>
<path d="M258.746 42.6069C259.445 54.962 248.082 55.9201 242.305 49.5314C242.719 49.1137 243.153 48.7181 243.603 48.3499C247.436 45.2422 252.422 44.5319 256.633 42.0938C257.242 41.7418 257.831 41.3532 258.404 40.9419C258.572 41.4748 258.685 42.0333 258.746 42.6069Z" fill="#E3AA93"/>
<path d="M275.411 92.6494C273.976 92.6796 272.555 92.8507 271.165 93.2759C267.86 94.2841 264.983 96.6588 261.649 97.5436C261.035 97.7059 260.417 97.8193 259.791 97.8903C255.396 94.7809 251.869 88.4404 254.776 83.2321C259.487 77.3803 269.033 80.6241 273.347 85.6265C275.15 88.0821 275.715 90.5068 275.411 92.6494Z" fill="#E3AA93"/>
<path d="M248.747 99.6019C245.928 101.219 243.785 104.16 240.878 105.631C238.841 106.661 236.493 106.844 234.32 106.25C231.168 98.5885 237.827 83.7325 245.892 89.5208C248.611 91.8438 249.359 95.7851 248.747 99.6019Z" fill="#E3AA93"/>
<path d="M272.658 61.7568C272.252 67.0524 269.276 72.7152 264.775 74.863C255.076 78.3086 253.715 63.5986 258.84 57.6002C263.104 51.3493 273.11 52.7531 272.658 61.7568Z" fill="#E3AA93"/>
<path d="M249.976 69.6611C255 78.1906 243.019 84.4572 236.623 82.6044C232.725 81.4647 230.83 75.7002 233.428 72.1667C237.268 67.465 245.346 65.2962 249.976 69.6611Z" fill="#E3AA93"/>
<path d="M178.996 130.708C177.441 130.758 175.892 130.91 174.353 131.145C175.872 130.143 177.494 129.347 179.196 128.778C179.536 128.665 179.691 128.182 179.571 127.836C179.434 127.445 179.062 127.307 178.722 127.42C176.193 128.265 173.808 129.608 171.692 131.362C171.486 131.532 171.416 131.76 171.435 131.979C171.379 132.094 171.351 132.228 171.365 132.378C171.398 132.742 171.734 133.104 172.084 133.028C174.407 132.524 176.762 132.232 179.129 132.156C179.484 132.145 179.749 131.729 179.715 131.358C179.677 130.943 179.352 130.697 178.996 130.708Z" fill="#DD7C79"/>
</g>
<path d="M133.044 64.6263C129.359 68.2901 125.159 71.3111 120.636 73.5456C119.14 67.9806 118.449 62.1405 118.611 56.3335C118.669 54.1607 119.025 51.6539 120.716 50.5602C122.69 49.2786 125.361 50.9069 126.314 53.2112C127.269 55.5219 127 58.1951 126.712 60.7111C128.006 59.4313 129.383 58.102 131.086 57.7308C132.782 57.3539 134.858 58.3626 135.141 60.2614C135.398 61.9596 134.201 63.475 133.044 64.6263Z" fill="#E39590"/>
<path d="M140.421 78.1242C139.517 78.4558 138.54 78.4488 137.594 78.3831C134.43 78.1789 131.3 77.4592 128.324 76.2614L128.395 75.5721C130.247 71.8111 132.51 68.306 135.122 65.1547C136.236 63.8091 137.827 62.4164 139.361 63.0825C140.726 63.6759 141.176 65.7114 140.682 67.2432C140.194 68.7813 139.048 69.9192 137.944 70.992C139.087 71.3573 140.259 71.7395 141.189 72.5673C142.12 73.3888 142.749 74.7669 142.415 76.0357C142.154 77.0532 141.32 77.7932 140.421 78.1242Z" fill="#DD7C79"/>
<path d="M114.727 59.2299C115.167 60.0083 115.364 60.9251 115.511 61.8251C116.012 64.831 116.115 67.9125 115.822 70.9486L115.283 71.0254C112.041 70.0713 108.907 68.6781 105.97 66.8857C104.716 66.1219 103.327 64.92 103.515 63.3446C103.683 61.9432 105.137 61.0991 106.404 61.2439C107.674 61.3818 108.777 62.2195 109.821 63.031C109.861 61.885 109.909 60.7075 110.345 59.6645C110.776 58.6231 111.692 57.7464 112.726 57.7965C113.554 57.8291 114.289 58.4568 114.727 59.2299Z" fill="#DD7C79"/>
<path d="M28.4238 139.9V139.902L31.266 141.807L32.914 147.65L34.5614 141.804L37.4036 139.9V139.897L34.5614 137.993L32.914 132.148L31.266 137.996L28.4238 139.9Z" fill="#EEBFA6"/>
<path d="M26.383 126.256C28.3218 126.256 28.325 129.601 26.383 129.601C24.4442 129.601 24.4411 126.256 26.383 126.256Z" fill="#EEBFA6"/>
<path d="M41.1135 126.256C43.0523 126.256 43.0554 129.601 41.1135 129.601C39.1747 129.601 39.1715 126.256 41.1135 126.256Z" fill="#EEBFA6"/>
<path d="M51.1568 140.116C53.0956 140.116 53.0988 143.461 51.1568 143.461C49.2175 143.461 49.2144 140.116 51.1568 140.116Z" fill="#EEBFA6"/>
<path d="M48.0117 116.949V116.95L50.0029 118.284L51.1573 122.378L52.3111 118.283L54.3023 116.949V116.947L52.3111 115.613L51.1573 111.519L50.0029 115.615L48.0117 116.949Z" fill="#EEBFA6"/>
<path d="M105.176 252.534V252.537L108.018 254.441L109.666 260.286L111.314 254.438L114.156 252.534V252.532L111.314 250.628L109.666 244.784L108.018 250.63L105.176 252.534Z" fill="#EEBFA6"/>
<path d="M103.143 238.897C105.082 238.897 105.085 242.242 103.143 242.242C101.204 242.243 101.201 238.897 103.143 238.897Z" fill="#EEBFA6"/>
<path d="M117.869 238.897C119.808 238.897 119.811 242.242 117.869 242.242C115.931 242.243 115.927 238.897 117.869 238.897Z" fill="#EEBFA6"/>
<path d="M222.338 181.244C224.277 181.244 224.28 184.589 222.338 184.589C220.399 184.589 220.396 181.244 222.338 181.244Z" fill="#EEBFA6"/>
<path d="M206.311 207.594C208.25 207.594 208.253 210.939 206.311 210.939C204.372 210.939 204.368 207.594 206.311 207.594Z" fill="#EEBFA6"/>
<path d="M201.297 182.917C203.236 182.917 203.239 186.263 201.297 186.263C199.358 186.263 199.355 182.917 201.297 182.917Z" fill="#EEBFA6"/>
<path d="M208.844 194.941V194.943L210.835 196.277L211.989 200.371L213.144 196.275L215.134 194.941V194.939L213.144 193.605L211.989 189.512L210.835 193.607L208.844 194.941Z" fill="#EEBFA6"/>
<path d="M193.942 200.368C195.88 200.368 195.884 203.713 193.942 203.713C192.003 203.714 192 200.368 193.942 200.368Z" fill="#EEBFA6"/>
<path d="M179.791 58.2389V58.2418L182.633 60.1459L184.281 65.9895L185.929 60.143L188.771 58.2389V58.2366L185.929 56.3319L184.281 50.4883L182.633 56.3348L179.791 58.2389Z" fill="#EEBFA6"/>
<path d="M177.776 44.5981C179.714 44.5981 179.718 47.9432 177.776 47.9432C175.837 47.9438 175.834 44.5981 177.776 44.5981Z" fill="#EEBFA6"/>
<path d="M192.508 44.5981C194.447 44.5981 194.45 47.9432 192.508 47.9432C190.569 47.9438 190.566 44.5981 192.508 44.5981Z" fill="#EEBFA6"/>
<path d="M166.371 58.2412C168.31 58.2412 168.313 61.5863 166.371 61.5863C164.432 61.5863 164.429 58.2412 166.371 58.2412Z" fill="#EEBFA6"/>
</svg>
